<svg xmlns="http://www.w3.org/2000/svg" xmlns:xlink="http://www.w3.org/1999/xlink" width="500" zoomAndPan="magnify" viewBox="0 0 375 374.999991" height="500" preserveAspectRatio="xMidYMid meet" version="1.2"><defs><filter x="0%" y="0%" width="100%" filterUnits="objectBoundingBox" id="1e5d84a107" height="100%"><feColorMatrix values="0 0 0 0 1 0 0 0 0 1 0 0 0 0 1 0 0 0 1 0" type="matrix" in="SourceGraphic"/></filter><clipPath id="fa583d89e9"><path d="M 0.398438 0.5 L 284.347656 0.5 L 284.347656 300 L 0.398438 300 Z M 0.398438 0.5 "/></clipPath><clipPath id="f2257972c3"><rect x="0" width="285" y="0" height="302"/></clipPath><clipPath id="03097989b7"><path d="M 23 142 L 132 142 L 132 262 L 23 262 Z M 23 142 "/></clipPath><clipPath id="d84c9b14a7"><path d="M 23.378906 167.058594 L 53.417969 142.160156 L 131.746094 236.667969 L 101.703125 261.566406 Z M 23.378906 167.058594 "/></clipPath><clipPath id="2bd63fccf5"><path d="M 139 46 L 248 46 L 248 166 L 139 166 Z M 139 46 "/></clipPath><clipPath id="e728116707"><path d="M 139.367188 70.964844 L 169.410156 46.070312 L 247.734375 140.578125 L 217.695312 165.472656 Z M 139.367188 70.964844 "/></clipPath><clipPath id="408658260a"><path d="M 128 209 L 237 209 L 237 329 L 128 329 Z M 128 209 "/></clipPath><clipPath id="2f10c981cd"><path d="M 128.410156 234.394531 L 158.417969 209.523438 L 236.667969 303.9375 L 206.65625 328.808594 Z M 128.410156 234.394531 "/></clipPath><clipPath id="025562fa28"><path d="M 0 129.628906 L 83.703125 129.628906 L 83.703125 291.972656 L 0 291.972656 Z M 0 129.628906 "/></clipPath><clipPath id="f3f1ae3368"><path d="M 175.308594 221.835938 L 251.675781 221.835938 L 251.675781 371.953125 L 175.308594 371.953125 Z M 175.308594 221.835938 "/></clipPath><clipPath id="2c99e2c0d5"><path d="M 123.320312 0 L 199.6875 0 L 199.6875 164.472656 L 123.320312 164.472656 Z M 123.320312 0 "/></clipPath><clipPath id="c88fce8859"><path d="M 82 93 L 191 93 L 191 213 L 82 213 Z M 82 93 "/></clipPath><clipPath id="4b5945fd45"><path d="M 82.007812 118.175781 L 112.046875 93.277344 L 190.375 187.785156 L 160.332031 212.683594 Z M 82.007812 118.175781 "/></clipPath><clipPath id="f96ee993a8"><path d="M 185 162 L 294 162 L 294 282 L 185 282 Z M 185 162 "/></clipPath><clipPath id="8835f04f8a"><path d="M 185.765625 187.0625 L 215.777344 162.191406 L 294.023438 256.605469 L 264.015625 281.476562 Z M 185.765625 187.0625 "/></clipPath><clipPath id="37034ed03f"><path d="M 128 227 L 295 227 L 295 375 L 128 375 Z M 128 227 "/></clipPath><clipPath id="57e19cf09f"><path d="M 268.957031 227.105469 L 294.019531 257.007812 L 153.464844 374.804688 L 128.402344 344.902344 Z M 268.957031 227.105469 "/></clipPath><clipPath id="bc4e09deaf"><path d="M 268.742188 164.472656 L 352.441406 164.472656 L 352.441406 326.820312 L 268.742188 326.820312 Z M 268.742188 164.472656 "/></clipPath><clipPath id="8fa2437939"><path d="M 244 115 L 353 115 L 353 235 L 244 235 Z M 244 115 "/></clipPath><clipPath id="236ac4edcf"><path d="M 244.1875 139.914062 L 274.199219 115.042969 L 352.445312 209.457031 L 322.4375 234.328125 Z M 244.1875 139.914062 "/></clipPath><clipPath id="849f05d766"><path d="M 291.296875 120.007812 L 375 120.007812 L 375 282.355469 L 291.296875 282.355469 Z M 291.296875 120.007812 "/></clipPath><clipPath id="98c2ab588b"><path d="M 82 2 L 245 2 L 245 148 L 82 148 Z M 82 2 "/></clipPath><clipPath id="dd54ff4a82"><path d="M 219.121094 2.835938 L 244.183594 32.738281 L 107.066406 147.65625 L 82.003906 117.75 Z M 219.121094 2.835938 "/></clipPath><clipPath id="9addc1c424"><path d="M 219.613281 0 L 303.316406 0 L 303.316406 75.246094 L 219.613281 75.246094 Z M 219.613281 0 "/></clipPath><clipPath id="3d758f0e34"><path d="M 68.539062 282.355469 L 152.242188 282.355469 L 152.242188 375 L 68.539062 375 Z M 68.539062 282.355469 "/></clipPath><clipPath id="5597778264"><path d="M 23.378906 37.5 L 107.082031 37.5 L 107.082031 174.6875 L 23.378906 174.6875 Z M 23.378906 37.5 "/></clipPath></defs><g id="c3af20044e"><rect x="0" width="375" y="0" height="374.999991" style="fill:#ffffff;fill-opacity:1;stroke:none;"/><rect x="0" width="375" y="0" height="374.999991" style="fill:#000000;fill-opacity:1;stroke:none;"/><g mask="url(#98669368ae)" transform="matrix(1,0,0,1,48,37)"><g clip-path="url(#f2257972c3)"><g clip-rule="nonzero" clip-path="url(#fa583d89e9)"><path style=" stroke:none;fill-rule:nonzero;fill:#000000;fill-opacity:1;" d="M 0.398438 0.5 L 284.347656 0.5 L 284.347656 299.980469 L 0.398438 299.980469 Z M 0.398438 0.5 "/></g></g><mask id="98669368ae"><g filter="url(#1e5d84a107)"><rect x="0" width="375" y="0" height="374.999991" style="fill:#000000;fill-opacity:0.27;stroke:none;"/></g></mask></g><g clip-rule="nonzero" clip-path="url(#03097989b7)"><g clip-rule="nonzero" clip-path="url(#d84c9b14a7)"><path style=" stroke:none;fill-rule:nonzero;fill:#ffffff;fill-opacity:1;" d="M 23.378906 167.058594 L 53.417969 142.160156 L 131.707031 236.625 L 101.667969 261.519531 Z M 23.378906 167.058594 "/></g></g><g clip-rule="nonzero" clip-path="url(#2bd63fccf5)"><g clip-rule="nonzero" clip-path="url(#e728116707)"><path style=" stroke:none;fill-rule:nonzero;fill:#ffffff;fill-opacity:1;" d="M 139.367188 70.964844 L 169.410156 46.070312 L 247.695312 140.53125 L 217.65625 165.429688 Z M 139.367188 70.964844 "/></g></g><g clip-rule="nonzero" clip-path="url(#408658260a)"><g clip-rule="nonzero" clip-path="url(#2f10c981cd)"><path style=" stroke:none;fill-rule:nonzero;fill:#ffffff;fill-opacity:1;" d="M 128.410156 234.394531 L 158.417969 209.523438 L 236.628906 303.890625 L 206.617188 328.761719 Z M 128.410156 234.394531 "/></g></g><g clip-rule="nonzero" clip-path="url(#025562fa28)"><path style=" stroke:none;fill-rule:nonzero;fill:#000000;fill-opacity:1;" d="M 0 129.628906 L 83.703125 129.628906 L 83.703125 292.128906 L 0 292.128906 Z M 0 129.628906 "/></g><g clip-rule="nonzero" clip-path="url(#f3f1ae3368)"><path style=" stroke:none;fill-rule:nonzero;fill:#000000;fill-opacity:1;" d="M 175.308594 221.835938 L 251.675781 221.835938 L 251.675781 371.882812 L 175.308594 371.882812 Z M 175.308594 221.835938 "/></g><g clip-rule="nonzero" clip-path="url(#2c99e2c0d5)"><path style=" stroke:none;fill-rule:nonzero;fill:#000000;fill-opacity:1;" d="M 123.320312 0 L 199.6875 0 L 199.6875 164.367188 L 123.320312 164.367188 Z M 123.320312 0 "/></g><g clip-rule="nonzero" clip-path="url(#c88fce8859)"><g clip-rule="nonzero" clip-path="url(#4b5945fd45)"><path style=" stroke:none;fill-rule:nonzero;fill:#ffffff;fill-opacity:1;" d="M 82.007812 118.175781 L 112.046875 93.277344 L 190.335938 187.742188 L 160.296875 212.636719 Z M 82.007812 118.175781 "/></g></g><g clip-rule="nonzero" clip-path="url(#f96ee993a8)"><g clip-rule="nonzero" clip-path="url(#8835f04f8a)"><path style=" stroke:none;fill-rule:nonzero;fill:#ffffff;fill-opacity:1;" d="M 185.765625 187.0625 L 215.777344 162.191406 L 293.988281 256.558594 L 263.976562 281.433594 Z M 185.765625 187.0625 "/></g></g><g clip-rule="nonzero" clip-path="url(#37034ed03f)"><g clip-rule="nonzero" clip-path="url(#57e19cf09f)"><path style=" stroke:none;fill-rule:nonzero;fill:#ffffff;fill-opacity:1;" d="M 268.957031 227.105469 L 294.019531 257.007812 L 153.5 374.777344 L 128.4375 344.875 Z M 268.957031 227.105469 "/></g></g><g clip-rule="nonzero" clip-path="url(#bc4e09deaf)"><path style=" stroke:none;fill-rule:nonzero;fill:#000000;fill-opacity:1;" d="M 268.742188 164.472656 L 352.441406 164.472656 L 352.441406 326.976562 L 268.742188 326.976562 Z M 268.742188 164.472656 "/></g><g clip-rule="nonzero" clip-path="url(#8fa2437939)"><g clip-rule="nonzero" clip-path="url(#236ac4edcf)"><path style=" stroke:none;fill-rule:nonzero;fill:#ffffff;fill-opacity:1;" d="M 244.1875 139.914062 L 274.199219 115.042969 L 352.410156 209.410156 L 322.398438 234.28125 Z M 244.1875 139.914062 "/></g></g><g clip-rule="nonzero" clip-path="url(#849f05d766)"><path style=" stroke:none;fill-rule:nonzero;fill:#000000;fill-opacity:1;" d="M 291.296875 120.007812 L 375 120.007812 L 375 282.511719 L 291.296875 282.511719 Z M 291.296875 120.007812 "/></g><g clip-rule="nonzero" clip-path="url(#98c2ab588b)"><g clip-rule="nonzero" clip-path="url(#dd54ff4a82)"><path style=" stroke:none;fill-rule:nonzero;fill:#ffffff;fill-opacity:1;" d="M 219.121094 2.835938 L 244.183594 32.738281 L 107.046875 147.667969 L 81.988281 117.765625 Z M 219.121094 2.835938 "/></g></g><g clip-rule="nonzero" clip-path="url(#9addc1c424)"><path style=" stroke:none;fill-rule:nonzero;fill:#000000;fill-opacity:1;" d="M 219.613281 -35.101562 L 303.316406 -35.101562 L 303.316406 75.085938 L 219.613281 75.085938 Z M 219.613281 -35.101562 "/></g><g clip-rule="nonzero" clip-path="url(#3d758f0e34)"><path style=" stroke:none;fill-rule:nonzero;fill:#000000;fill-opacity:1;" d="M 68.539062 282.355469 L 152.242188 282.355469 L 152.242188 423.929688 L 68.539062 423.929688 Z M 68.539062 282.355469 "/></g><g clip-rule="nonzero" clip-path="url(#5597778264)"><path style=" stroke:none;fill-rule:nonzero;fill:#000000;fill-opacity:1;" d="M 23.378906 37.5 L 107.082031 37.5 L 107.082031 174.824219 L 23.378906 174.824219 Z M 23.378906 37.5 "/></g></g></svg>